<svg width="auto" height="auto" viewBox="0 0 12 10" fill="none" xmlns="http://www.w3.org/2000/svg">
<path fill-rule="evenodd" clip-rule="evenodd" d="M0.937525 2.5C0.764936 2.5 0.625025 2.36009 0.625025 2.1875V0.803571C0.625025 0.704948 0.545076 0.624999 0.446454 0.624999H0.312525C0.139936 0.624999 2.55758e-05 0.485089 2.55758e-05 0.3125C2.55758e-05 0.139911 0.139936 0 0.312525 0H0.750024C1.02617 0 1.25002 0.223857 1.25002 0.5V2.1875C1.25002 2.36009 1.11011 2.5 0.937525 2.5ZM0.3125 8.12499C0.139911 8.12499 0 7.98508 0 7.81249C0 7.6399 0.139911 7.49999 0.3125 7.49999H1.375C1.65114 7.49999 1.875 7.72385 1.875 7.99999V9.49999C1.875 9.77613 1.65114 9.99999 1.375 9.99999H0.3125C0.139911 9.99999 0 9.86008 0 9.68749C0 9.5149 0.139911 9.37499 0.3125 9.37499H1.15C1.20523 9.37499 1.25 9.33022 1.25 9.27499V9.16249C1.25 9.10726 1.20523 9.06249 1.15 9.06249H0.937499C0.76491 9.06249 0.624999 8.92258 0.624999 8.74999C0.624999 8.5774 0.76491 8.43749 0.937499 8.43749H1.15C1.20523 8.43749 1.25 8.39272 1.25 8.33749V8.22499C1.25 8.16976 1.20523 8.12499 1.15 8.12499H0.3125ZM0 4.06249C0 4.23508 0.139911 4.37499 0.3125 4.37499H0.907577C0.993012 4.37499 1.0391 4.47521 0.983503 4.54007L0.0988507 5.57217C0.0350624 5.64659 0 5.74137 0 5.83939C0 6.06616 0.183835 6.24999 0.410606 6.24999H1.5625C1.73509 6.24999 1.875 6.11008 1.875 5.93749C1.875 5.7649 1.73509 5.62499 1.5625 5.62499H0.967421C0.881986 5.62499 0.835895 5.52478 0.891496 5.45991L1.77615 4.42782C1.83994 4.3534 1.875 4.25862 1.875 4.1606C1.875 3.93383 1.69116 3.75 1.46439 3.75H0.3125C0.139911 3.75 0 3.88991 0 4.06249ZM3.12498 1.25001C3.12498 0.904836 3.4048 0.625014 3.74998 0.625014H11.25C11.5952 0.625014 11.875 0.904836 11.875 1.25001C11.875 1.59519 11.5952 1.87501 11.25 1.87501H3.74998C3.4048 1.87501 3.12498 1.59519 3.12498 1.25001ZM3.12498 8.75C3.12498 9.09518 3.4048 9.375 3.74998 9.375H11.25C11.5952 9.375 11.875 9.09518 11.875 8.75C11.875 8.40483 11.5952 8.125 11.25 8.125H3.74998C3.4048 8.125 3.12498 8.40483 3.12498 8.75ZM3.74998 5.62501C3.4048 5.62501 3.12498 5.34519 3.12498 5.00001C3.12498 4.65483 3.4048 4.37501 3.74998 4.37501H11.25C11.5952 4.37501 11.875 4.65483 11.875 5.00001C11.875 5.34519 11.5952 5.62501 11.25 5.62501H3.74998Z" fill="white" fill-opacity="0.8"/>
</svg>
