<svg width="auto" height="auto" viewBox="0 0 15 15" fill="none" xmlns="http://www.w3.org/2000/svg">
<circle cx="7.5" cy="7.5" r="7.5" fill="#E3E3E3"/>
<path d="M11.1388 7.98089C11.3905 7.98089 11.5945 7.77685 11.5945 7.52515C11.5945 7.27344 11.3905 7.0694 11.1388 7.0694L8.08089 7.0694C8.02566 7.0694 7.98089 7.02463 7.98089 6.9694L7.98089 3.91149C7.98089 3.65979 7.77685 3.45575 7.52515 3.45575C7.27344 3.45575 7.0694 3.65979 7.0694 3.91149V6.9694C7.0694 7.02463 7.02463 7.0694 6.9694 7.0694H3.91149C3.65979 7.0694 3.45575 7.27344 3.45575 7.52515C3.45575 7.77685 3.65979 7.98089 3.91149 7.98089L6.9694 7.98089C7.02463 7.98089 7.0694 8.02566 7.0694 8.08089V11.1388C7.0694 11.3905 7.27344 11.5945 7.52515 11.5945C7.77685 11.5945 7.98089 11.3905 7.98089 11.1388L7.98089 8.08089C7.98089 8.02566 8.02566 7.98089 8.08089 7.98089H11.1388Z" fill="#1E2127"/>
</svg>
