<svg width="auto" height="auto" viewBox="0 0 6 10" fill="none" xmlns="http://www.w3.org/2000/svg">
<path d="M4.60382 2.27272V7.49999C4.60382 8.50454 3.79019 9.31817 2.78564 9.31817C1.7811 9.31817 0.967462 8.50454 0.967462 7.49999V1.81818C0.967462 1.19091 1.47655 0.681818 2.10382 0.681818C2.7311 0.681818 3.24019 1.19091 3.24019 1.81818V6.5909C3.24019 6.8409 3.03564 7.04545 2.78564 7.04545C2.53564 7.04545 2.3311 6.8409 2.3311 6.5909V2.27272H1.64928V6.5909C1.64928 7.21817 2.15837 7.72727 2.78564 7.72727C3.41291 7.72727 3.92201 7.21817 3.92201 6.5909V1.81818C3.92201 0.813636 3.10837 0 2.10382 0C1.09928 0 0.285645 0.813636 0.285645 1.81818V7.49999C0.285645 8.88181 1.40383 9.99999 2.78564 9.99999C4.16746 9.99999 5.28564 8.88181 5.28564 7.49999V2.27272H4.60382Z" fill="white" fill-opacity="0.8"/>
</svg>
