<svg width="auto" height="auto" viewBox="0 0 14 10" fill="none" xmlns="http://www.w3.org/2000/svg">
<path fill-rule="evenodd" clip-rule="evenodd" d="M11.7142 0H1.71421C0.928501 0 0.285645 0.5 0.285645 1.11111V8.88888C0.285645 9.49999 0.928501 9.99999 1.71421 9.99999H11.7142C12.4999 9.99999 13.1428 9.49999 13.1428 8.88888V1.11111C13.1428 0.5 12.4999 0 11.7142 0ZM11.714 1.42856V8.57141H1.71406V1.42856H11.714ZM7.84146 3.98932C8.04358 3.72859 8.43835 3.73161 8.63645 3.9954L10.3991 6.34259C10.6466 6.67216 10.4115 7.14283 9.9993 7.14283H3.45052C3.03452 7.14283 2.80045 6.66446 3.05573 6.33601L4.18867 4.87829C4.38507 4.62558 4.76504 4.61991 4.9689 4.86664L5.70219 5.75413C5.90622 6.00106 6.28656 5.99514 6.48281 5.74198L7.84146 3.98932Z" fill="white" fill-opacity="0.8"/>
</svg>
