<svg width="auto" height="auto" viewBox="0 0 14 12" fill="none" xmlns="http://www.w3.org/2000/svg">
<path d="M12.4873 0.930187L12.4873 0.930182C12.8206 0.802996 13.1618 1.09498 13.0906 1.44266C13.0893 1.45146 13.0868 1.4599 13.0861 1.46216L13.086 1.46261C13.0829 1.4734 13.0755 1.49796 13.058 1.55599C13.0226 1.67278 12.9447 1.92831 12.7737 2.48933L10.2209 10.8587L10.2209 10.8587C10.1298 11.1573 9.77015 11.2754 9.51986 11.0896L6.41225 8.78332L5.15321 11.2817L5.15321 11.2818C5.05842 11.4698 4.84762 11.5659 4.64551 11.5178C4.64551 11.5178 4.64551 11.5178 4.6455 11.5178L4.66864 11.4206C4.5102 11.3829 4.39838 11.2414 4.39838 11.0785L12.4873 0.930187ZM12.4873 0.930187L1.19051 5.24265L1.1905 5.24265C1.01587 5.30933 0.900362 5.4767 0.900001 5.66363C0.89964 5.85056 1.01448 6.0184 1.18888 6.08574C1.18888 6.08574 1.18888 6.08574 1.18888 6.08574L4.29838 7.28669L12.4873 0.930187ZM13.0916 1.42874C13.0916 1.43194 13.0914 1.43488 13.0911 1.43744C13.0915 1.43176 13.0917 1.42174 13.0917 1.42174C13.0917 1.42174 13.0917 1.42367 13.0916 1.42874ZM13.0898 1.44647C13.0897 1.44679 13.0897 1.44703 13.0896 1.44718L13.0896 1.44717C13.0897 1.44694 13.0897 1.44671 13.0898 1.44647ZM9.50778 3.03427L4.68594 6.46823L2.61127 5.66696L9.50778 3.03427ZM5.2015 9.17896V7.20978L9.1161 4.42195C8.4127 5.16396 7.86327 5.74349 7.43404 6.19624C6.89565 6.76414 6.54638 7.13253 6.31963 7.37184C6.08757 7.61676 5.98361 7.72671 5.93656 7.77692C5.91375 7.80125 5.90273 7.81323 5.89699 7.81996C5.89445 7.82293 5.89062 7.82752 5.88667 7.83357C5.88551 7.83496 5.88311 7.83788 5.88058 7.84128C5.87412 7.84998 5.86861 7.85929 5.86247 7.87043C5.85024 7.8926 5.8274 7.93699 5.77815 8.0343C5.72575 8.13783 5.64243 8.30332 5.50824 8.56985C5.42642 8.73236 5.32568 8.93245 5.2015 9.17896ZM11.6571 3.05414L9.54386 9.98275L6.9289 8.0421L11.6571 3.05414Z" fill="#C2DBFF" stroke="#C2DBFF" stroke-width="0.2"/>
</svg>
