<svg width="auto" height="auto" viewBox="0 0 16 14" fill="none" xmlns="http://www.w3.org/2000/svg">
<path d="M14.2217 0.933741L14.2217 0.933735C14.5954 0.791122 14.9781 1.1203 14.8947 1.51067M14.2217 0.933741L4.90989 12.5955C4.90989 12.7829 5.03854 12.9457 5.22083 12.989L5.19769 13.0863C5.19769 13.0863 5.19769 13.0863 5.1977 13.0863C5.42349 13.14 5.659 13.0326 5.76489 12.8225L5.76489 12.8225L7.22148 9.93208L10.8112 12.5961C11.0908 12.8037 11.4926 12.6717 11.5944 12.3382L11.5944 12.3382C12.5048 9.35336 13.1638 7.19262 13.641 5.62832C14.0655 4.23656 14.346 3.31694 14.5314 2.7091C14.7282 2.06364 14.8177 1.76967 14.8585 1.6353C14.8787 1.5685 14.8871 1.54038 14.8906 1.52811L14.8908 1.52743C14.8917 1.52427 14.8947 1.51424 14.8958 1.50457C14.8959 1.50384 14.896 1.50281 14.8961 1.5016M14.2217 0.933741L1.22455 5.89529L1.22454 5.8953C1.02945 5.96979 0.900405 6.15677 0.900001 6.3656C0.899597 6.57444 1.0279 6.76195 1.22273 6.83718C1.22273 6.83718 1.22273 6.83718 1.22273 6.83718L4.80989 8.22261L14.2217 0.933741ZM14.8947 1.51067C14.895 1.50922 14.8956 1.50598 14.8961 1.5016M14.8947 1.51067C14.8946 1.51105 14.8946 1.51131 14.8946 1.51143L14.8946 1.51132C14.8946 1.5111 14.8947 1.51089 14.8947 1.51067ZM14.8961 1.5016C14.8963 1.49909 14.8965 1.49621 14.8966 1.49308C14.8966 1.48803 14.8967 1.48611 14.8967 1.48611C14.8966 1.48611 14.8964 1.49585 14.8961 1.5016ZM2.8118 6.36933L10.893 3.28439L5.24287 7.30823L2.8118 6.36933ZM5.81884 10.4734V8.13669L10.4554 4.83467C9.59362 5.7438 8.92705 6.4469 8.41142 6.99078C7.7931 7.64297 7.39185 8.06622 7.13124 8.34126C6.86424 8.62305 6.74466 8.74951 6.69056 8.80724C6.66424 8.83533 6.65183 8.84882 6.64551 8.85623C6.64263 8.85961 6.6385 8.86458 6.63432 8.87107L6.63417 8.87125C6.63306 8.87259 6.63025 8.87595 6.62726 8.87997C6.62045 8.88914 6.61451 8.89915 6.60752 8.91181C6.59361 8.93702 6.56748 8.9878 6.51077 9.09986C6.45047 9.219 6.35458 9.40945 6.20013 9.71621C6.09983 9.91543 5.97483 10.1637 5.81884 10.4734ZM13.2942 3.30658L10.838 11.3596L7.79869 9.10401L13.2942 3.30658Z" fill="#C2DBFF" stroke="#C2DBFF" stroke-width="0.2"/>
</svg>
