<svg width="auto" height="auto" viewBox="0 0 12 12" fill="none" xmlns="http://www.w3.org/2000/svg">
<path fill-rule="evenodd" clip-rule="evenodd" d="M6 0C4.3425 0 3 1.3425 3 3C3 4.6575 4.3425 6 6 6C7.6575 6 9 4.6575 9 3C9 1.3425 7.6575 0 6 0ZM7.5 3C7.5 2.175 6.825 1.5 6 1.5C5.175 1.5 4.5 2.175 4.5 3C4.5 3.825 5.175 4.5 6 4.5C6.825 4.5 7.5 3.825 7.5 3ZM10.5 9.75C10.35 9.2175 8.025 8.25 6 8.25C3.975 8.25 1.65 9.2175 1.5 9.7575V10.5H10.5V9.75ZM0 9.75C0 7.755 3.9975 6.75 6 6.75C8.0025 6.75 12 7.755 12 9.75V11C12 11.5523 11.5523 12 11 12H1C0.447715 12 0 11.5523 0 11V9.75Z" fill="#C2DBFF"/>
</svg>
