<svg width="auto" height="auto" viewBox="0 0 14 14" fill="none" xmlns="http://www.w3.org/2000/svg">
<path fill-rule="evenodd" clip-rule="evenodd" d="M8.85337 3.95576C8.92332 4.13001 9.08499 4.25038 9.27198 4.26743L12.9987 4.60725C13.4309 4.64665 13.6111 5.18014 13.2914 5.47356L10.4271 8.10218C10.2959 8.22259 10.2386 8.4037 10.2768 8.57766L11.1261 12.4511C11.2214 12.8858 10.7439 13.2191 10.3687 12.9796L7.22115 10.9708C7.0571 10.8661 6.84721 10.8661 6.68316 10.9708L3.53745 12.9785C3.16199 13.2181 2.68424 12.8842 2.78019 12.4493L3.6342 8.57829C3.67265 8.404 3.61529 8.22244 3.48368 8.10188L0.616322 5.47525C0.295912 5.18174 0.4766 4.64739 0.909384 4.60856L4.63162 4.27463C4.81899 4.25783 4.98106 4.13727 5.05105 3.96266L6.4884 0.3766C6.65615 -0.0419198 7.24855 -0.0420742 7.41652 0.376358L8.85337 3.95576ZM4.51639 9.92207C4.42027 10.3571 4.89814 10.6911 5.27366 10.4514L6.68304 9.55165C6.84724 9.44683 7.05736 9.44692 7.22147 9.55186L8.63753 10.4574C9.01302 10.6976 9.4913 10.3635 9.39514 9.92833L9.001 8.14458C8.96251 7.97037 9.01976 7.78885 9.15124 7.66824L10.4877 6.44236C10.8074 6.14907 10.6274 5.61563 10.1954 5.57599L8.48342 5.41893C8.29636 5.40177 8.13471 5.28122 8.0649 5.10683L7.4173 3.48898C7.24951 3.0698 6.656 3.07014 6.4887 3.48952L5.84673 5.09875C5.77705 5.27341 5.61527 5.39421 5.428 5.41139L3.71645 5.56841C3.28438 5.60804 3.1044 6.14149 3.42415 6.43478L4.76057 7.66066C4.89205 7.78126 4.94931 7.96279 4.91081 8.137L4.51639 9.92207Z" fill="#94CE4B"/>
</svg>
