<svg width="auto" height="auto" viewBox="0 0 13 13" fill="none" xmlns="http://www.w3.org/2000/svg">
<path fill-rule="evenodd" clip-rule="evenodd" d="M8.4 3.89314C8.46995 4.06739 8.63162 4.18776 8.81861 4.20481L12.5453 4.54462C12.9775 4.58403 13.1577 5.11752 12.838 5.41094L9.97372 8.03956C9.84251 8.15997 9.78526 8.34108 9.8234 8.51503L10.6727 12.3884C10.7681 12.8232 10.2905 13.1565 9.91534 12.917L6.76778 10.9082C6.60373 10.8035 6.39384 10.8035 6.22979 10.9082L3.08408 12.9158C2.70862 13.1555 2.23087 12.8216 2.32682 12.3866L3.18083 8.51567C3.21928 8.34138 3.16192 8.15981 3.03031 8.03926L0.162953 5.41263C-0.157457 5.11912 0.023231 4.58477 0.456015 4.54594L4.17825 4.21201C4.36562 4.1952 4.52769 4.07465 4.59768 3.90003L6.03503 0.313978C6.20278 -0.104542 6.79518 -0.104696 6.96315 0.313736L8.4 3.89314ZM4.06302 9.85945C3.9669 10.2945 4.44478 10.6285 4.82029 10.3888L6.22967 9.48903C6.39387 9.38421 6.60399 9.38429 6.7681 9.48924L8.18417 10.3948C8.55965 10.6349 9.03793 10.3009 8.94177 9.86571L8.54763 8.08196C8.50914 7.90775 8.56639 7.72622 8.69787 7.60562L10.0343 6.37974C10.354 6.08645 10.1741 5.553 9.74199 5.51337L8.03005 5.35631C7.84299 5.33915 7.68134 5.2186 7.61153 5.04421L6.96393 3.42636C6.79614 3.00717 6.20263 3.00752 6.03533 3.4269L5.39336 5.03612C5.32369 5.21079 5.1619 5.33159 4.97463 5.34877L3.26308 5.50578C2.83101 5.54542 2.65104 6.07886 2.97078 6.37216L4.30721 7.59804C4.43868 7.71864 4.49594 7.90017 4.45744 8.07438L4.06302 9.85945Z" fill="#E2E3E4"/>
<path fill-rule="evenodd" clip-rule="evenodd" d="M7.63898 4.96757C7.70893 5.14182 7.8706 5.26219 8.05759 5.27924L10.0106 5.45732C10.4428 5.49673 10.623 6.03022 10.3033 6.32364L8.78347 7.71842C8.65226 7.83883 8.595 8.01995 8.63314 8.1939L9.08038 10.2335C9.17571 10.6683 8.69818 11.0015 8.32299 10.7621L6.69995 9.72624C6.53591 9.62155 6.32602 9.62155 6.16197 9.72624L4.54078 10.7609C4.16533 11.0005 3.68757 10.6667 3.78353 10.2317L4.23297 8.19453C4.27142 8.02025 4.21405 7.83868 4.08244 7.71812L2.562 6.32533C2.24159 6.03182 2.42228 5.49746 2.85506 5.45864L4.80362 5.28383C4.99098 5.26702 5.15306 5.14647 5.22305 4.97185L5.9672 3.11525C6.13495 2.69673 6.72735 2.69657 6.89532 3.11501L7.63898 4.96757ZM4.92281 8.57368C4.82669 9.0087 5.30457 9.34273 5.68008 9.103L6.16192 8.7954C6.32611 8.69058 6.53624 8.69066 6.70035 8.79561L7.1864 9.10645C7.56189 9.34657 8.04016 9.01254 7.944 8.57734L7.79656 7.91004C7.75806 7.73582 7.81532 7.5543 7.9468 7.4337L8.46422 6.95907C8.78396 6.66578 8.60399 6.13234 8.17192 6.0927L7.54046 6.03477C7.3534 6.01761 7.19175 5.89706 7.12194 5.72267L6.89618 5.15866C6.72839 4.73947 6.13488 4.73982 5.96758 5.1592L5.74498 5.71719C5.6753 5.89185 5.51351 6.01265 5.32625 6.02983L4.69519 6.08772C4.26312 6.12736 4.08314 6.6608 4.40289 6.9541L4.92031 7.42872C5.05179 7.54932 5.10904 7.73085 5.07055 7.90506L4.92281 8.57368Z" fill="#E2E3E4"/>
<rect x="3.82898" y="4.43945" width="5.67665" height="5.00218" fill="#E2E3E4"/>
</svg>
