<svg width="auto" height="auto" viewBox="0 0 13 13" fill="none" xmlns="http://www.w3.org/2000/svg">
<path fill-rule="evenodd" clip-rule="evenodd" d="M8.4 3.89314C8.46995 4.06739 8.63162 4.18776 8.81861 4.20481L12.5453 4.54462C12.9775 4.58403 13.1577 5.11752 12.838 5.41094L9.97372 8.03956C9.84251 8.15997 9.78526 8.34108 9.8234 8.51503L10.6727 12.3884C10.7681 12.8232 10.2905 13.1565 9.91534 12.917L6.76778 10.9082C6.60373 10.8035 6.39384 10.8035 6.2298 10.9082L3.08408 12.9158C2.70862 13.1555 2.23087 12.8216 2.32683 12.3866L3.18083 8.51567C3.21928 8.34138 3.16192 8.15981 3.03031 8.03926L0.162953 5.41263C-0.157456 5.11912 0.0232286 4.58477 0.456013 4.54594L4.17825 4.21201C4.36562 4.1952 4.5277 4.07465 4.59768 3.90003L6.03503 0.313978C6.20278 -0.104542 6.79518 -0.104696 6.96315 0.313736L8.4 3.89314ZM4.06302 9.85945C3.9669 10.2945 4.44478 10.6285 4.82029 10.3888L6.22967 9.48903C6.39387 9.38421 6.60399 9.38429 6.7681 9.48924L8.18417 10.3948C8.55965 10.6349 9.03793 10.3009 8.94177 9.86571L8.54764 8.08196C8.50914 7.90775 8.56639 7.72622 8.69787 7.60562L10.0343 6.37974C10.354 6.08645 10.1741 5.553 9.74199 5.51337L8.03005 5.35631C7.84299 5.33915 7.68134 5.2186 7.61153 5.04421L6.96393 3.42636C6.79614 3.00717 6.20263 3.00752 6.03533 3.4269L5.39337 5.03612C5.32369 5.21079 5.1619 5.33159 4.97463 5.34877L3.26309 5.50578C2.83101 5.54542 2.65104 6.07886 2.97078 6.37216L4.30721 7.59804C4.43869 7.71864 4.49594 7.90016 4.45745 8.07438L4.06302 9.85945Z" fill="#E2E3E4"/>
</svg>
