<svg width="auto" height="auto" viewBox="0 0 14 14" fill="none" xmlns="http://www.w3.org/2000/svg">
<path fill-rule="evenodd" clip-rule="evenodd" d="M8.84922 3.95576C8.91917 4.13001 9.08084 4.25038 9.26783 4.26743L12.9945 4.60725C13.4267 4.64665 13.6069 5.18014 13.2872 5.47356L10.4229 8.10218C10.2917 8.22259 10.2345 8.4037 10.2726 8.57766L11.122 12.4511C11.2173 12.8858 10.7398 13.2191 10.3646 12.9796L7.217 10.9708C7.05295 10.8661 6.84306 10.8661 6.67901 10.9708L3.5333 12.9785C3.15784 13.2181 2.68009 12.8842 2.77604 12.4493L3.63005 8.57829C3.6685 8.404 3.61114 8.22244 3.47953 8.10188L0.612171 5.47525C0.291762 5.18174 0.47245 4.64739 0.905234 4.60856L4.62747 4.27463C4.81484 4.25783 4.97691 4.13727 5.0469 3.96266L6.48425 0.3766C6.652 -0.0419198 7.2444 -0.0420742 7.41237 0.376358L8.84922 3.95576ZM4.51224 9.92207C4.41612 10.3571 4.89399 10.6911 5.26951 10.4514L6.67889 9.55165C6.84309 9.44683 7.05321 9.44692 7.21732 9.55186L8.63338 10.4574C9.00887 10.6976 9.48715 10.3635 9.39099 9.92833L8.99685 8.14458C8.95836 7.97037 9.01561 7.78885 9.14709 7.66824L10.4835 6.44236C10.8033 6.14907 10.6233 5.61563 10.1912 5.57599L8.47927 5.41893C8.29221 5.40177 8.13055 5.28122 8.06075 5.10683L7.41315 3.48898C7.24536 3.0698 6.65185 3.07014 6.48455 3.48952L5.84258 5.09875C5.7729 5.27341 5.61111 5.39421 5.42385 5.41139L3.7123 5.56841C3.28023 5.60804 3.10025 6.14149 3.42 6.43478L4.75642 7.66066C4.8879 7.78126 4.94516 7.96279 4.90666 8.137L4.51224 9.92207Z" fill="#FFD600"/>
</svg>
