<svg width="auto" height="auto" viewBox="0 0 14 14" fill="none" xmlns="http://www.w3.org/2000/svg">
<path fill-rule="evenodd" clip-rule="evenodd" d="M8.84897 3.95576C8.91892 4.13001 9.0806 4.25038 9.26758 4.26743L12.9943 4.60725C13.4265 4.64665 13.6067 5.18014 13.287 5.47356L10.4227 8.10218C10.2915 8.22259 10.2342 8.4037 10.2724 8.57766L11.1217 12.4511C11.217 12.8858 10.7395 13.2191 10.3643 12.9796L7.21676 10.9708C7.05271 10.8661 6.84282 10.8661 6.67877 10.9708L3.53305 12.9785C3.1576 13.2181 2.67984 12.8842 2.7758 12.4493L3.62981 8.57829C3.66826 8.404 3.61089 8.22244 3.47929 8.10188L0.611927 5.47525C0.291518 5.18174 0.472206 4.64739 0.90499 4.60856L4.62723 4.27463C4.81459 4.25783 4.97667 4.13727 5.04666 3.96266L6.48401 0.3766C6.65176 -0.0419198 7.24416 -0.0420742 7.41212 0.376358L8.84897 3.95576ZM4.51199 9.92207C4.41587 10.3571 4.89375 10.6911 5.26926 10.4514L6.67865 9.55165C6.84284 9.44683 7.05296 9.44692 7.21707 9.55186L8.63314 10.4574C9.00863 10.6976 9.4869 10.3635 9.39074 9.92833L8.99661 8.14458C8.95812 7.97037 9.01537 7.78885 9.14685 7.66824L10.4833 6.44236C10.803 6.14907 10.623 5.61563 10.191 5.57599L8.47902 5.41893C8.29197 5.40177 8.13031 5.28122 8.06051 5.10683L7.41291 3.48898C7.24511 3.0698 6.65161 3.07014 6.4843 3.48952L5.84234 5.09875C5.77266 5.27341 5.61087 5.39421 5.42361 5.41139L3.71206 5.56841C3.27999 5.60804 3.10001 6.14149 3.41975 6.43478L4.75618 7.66066C4.88766 7.78126 4.94491 7.96279 4.90642 8.137L4.51199 9.92207Z" fill="#FFD600"/>
<path fill-rule="evenodd" clip-rule="evenodd" d="M8.08783 5.03013C8.15778 5.20438 8.31945 5.32475 8.50644 5.3418L10.4595 5.51988C10.8916 5.55929 11.0719 6.09278 10.7521 6.3862L9.23232 7.78098C9.10111 7.9014 9.04385 8.08251 9.082 8.25646L9.52923 10.2961C9.62456 10.7308 9.14703 11.0641 8.77184 10.8247L7.14881 9.78881C6.98476 9.68411 6.77487 9.68411 6.61082 9.78881L4.98963 10.8235C4.61418 11.0631 4.13642 10.7292 4.23238 10.2943L4.68182 8.25709C4.72027 8.08281 4.6629 7.90124 4.5313 7.78068L3.01085 6.38789C2.69044 6.09438 2.87113 5.56002 3.30391 5.5212L5.25247 5.34639C5.43984 5.32958 5.60191 5.20903 5.6719 5.03441L6.41606 3.17781C6.58381 2.75929 7.17621 2.75913 7.34417 3.17757L8.08783 5.03013ZM5.37167 8.63618C5.27555 9.0712 5.75342 9.40523 6.12894 9.1655L6.61077 8.8579C6.77497 8.75308 6.98509 8.75316 7.1492 8.85811L7.63525 9.16895C8.01074 9.40907 8.48902 9.07504 8.39286 8.63984L8.24541 7.97254C8.20692 7.79832 8.26417 7.6168 8.39565 7.4962L8.91307 7.02157C9.23282 6.72828 9.05284 6.19484 8.62077 6.1552L7.98931 6.09727C7.80226 6.08011 7.6406 5.95956 7.5708 5.78517L7.34503 5.22116C7.17724 4.80197 6.58373 4.80232 6.41643 5.2217L6.19383 5.77969C6.12415 5.95435 5.96237 6.07515 5.7751 6.09233L5.14405 6.15022C4.71197 6.18986 4.532 6.7233 4.85174 7.0166L5.36916 7.49122C5.50064 7.61182 5.5579 7.79335 5.5194 7.96756L5.37167 8.63618Z" fill="#FFD600"/>
<rect x="4.27808" y="4.50189" width="5.67665" height="5.00218" fill="#FFD600"/>
</svg>
