<svg width="auto" height="auto" viewBox="0 0 13 10" fill="none" xmlns="http://www.w3.org/2000/svg">
<path fill-rule="evenodd" clip-rule="evenodd" d="M0 0.999999C0 0.446666 0.446666 0 0.999999 0C1.55333 0 2 0.446666 2 0.999999C2 1.55333 1.55333 2 0.999999 2C0.446666 2 0 1.55333 0 0.999999ZM0 4.99999C0 4.44666 0.446666 3.99999 0.999999 3.99999C1.55333 3.99999 2 4.44666 2 4.99999C2 5.55333 1.55333 5.99999 0.999999 5.99999C0.446666 5.99999 0 5.55333 0 4.99999ZM0.999999 7.99999C0.446666 7.99999 0 8.45332 0 8.99999C0 9.54665 0.453333 9.99999 0.999999 9.99999C1.54667 9.99999 2 9.54665 2 8.99999C2 8.45332 1.55333 7.99999 0.999999 7.99999ZM3.66678 9.66665C3.29859 9.66665 3.00011 9.36818 3.00011 8.99999C3.00011 8.6318 3.29859 8.33332 3.66678 8.33332H11.6668C12.035 8.33332 12.3334 8.6318 12.3334 8.99999C12.3334 9.36818 12.035 9.66665 11.6668 9.66665H3.66678ZM3.00011 4.99999C3.00011 5.36818 3.29859 5.66666 3.66678 5.66666H11.6668C12.035 5.66666 12.3334 5.36818 12.3334 4.99999C12.3334 4.6318 12.035 4.33333 11.6668 4.33333H3.66678C3.29859 4.33333 3.00011 4.6318 3.00011 4.99999ZM3.00011 0.999999C3.00011 0.631809 3.29859 0.333333 3.66678 0.333333H11.6668C12.035 0.333333 12.3334 0.631809 12.3334 0.999999C12.3334 1.36819 12.035 1.66667 11.6668 1.66667H3.66678C3.29859 1.66667 3.00011 1.36819 3.00011 0.999999Z" fill="white" fill-opacity="0.8"/>
</svg>
