<svg width="auto" height="auto" viewBox="0 0 14 6" fill="none" xmlns="http://www.w3.org/2000/svg">
<path fill-rule="evenodd" clip-rule="evenodd" d="M8.1427 0.685679C8.1427 0.385868 8.38574 0.142822 8.68555 0.142822H10.3649C11.8982 0.142822 13.1427 1.42282 13.1427 2.99996C13.1427 4.5771 11.8982 5.8571 10.3649 5.8571H8.68555C8.38574 5.8571 8.1427 5.61406 8.1427 5.31425C8.1427 5.01444 8.38574 4.77139 8.68555 4.77139H10.3649C11.3149 4.77139 12.0871 3.9771 12.0871 2.99996C12.0871 2.02282 11.3149 1.22854 10.3649 1.22854H8.68555C8.38574 1.22854 8.1427 0.98549 8.1427 0.685679ZM1.3412 2.99997C1.3412 2.02283 2.11342 1.22855 3.06342 1.22855H4.74278C5.04259 1.22855 5.28564 0.985501 5.28564 0.68569C5.28564 0.385878 5.04259 0.142833 4.74278 0.142833H3.06342C1.53009 0.142833 0.285645 1.42283 0.285645 2.99997C0.285645 4.57712 1.53009 5.85711 3.06342 5.85711H4.74278C5.04259 5.85711 5.28564 5.61407 5.28564 5.31426C5.28564 5.01445 5.04259 4.7714 4.74278 4.7714H3.06342C2.11342 4.7714 1.3412 3.97712 1.3412 2.99997ZM3.85695 2.99998C3.85695 3.39447 4.17675 3.71426 4.57124 3.71426H8.85695C9.25144 3.71426 9.57123 3.39447 9.57123 2.99998C9.57123 2.60549 9.25144 2.28569 8.85695 2.28569H4.57124C4.17675 2.28569 3.85695 2.60549 3.85695 2.99998Z" fill="white" fill-opacity="0.8"/>
</svg>
