<svg width="auto" height="auto" viewBox="0 0 12 14" fill="none" xmlns="http://www.w3.org/2000/svg">
<path fill-rule="evenodd" clip-rule="evenodd" d="M10.6667 1.33333H10V0.666667C10 0.298477 9.70152 0 9.33333 0C8.96514 0 8.66667 0.298477 8.66667 0.666667V1.33333H3.33333V0.666667C3.33333 0.298477 3.03486 0 2.66667 0C2.29848 0 2 0.298477 2 0.666667V1.33333H1.33333C0.593333 1.33333 0.00666667 1.93333 0.00666667 2.66667L0 12C0 12.7333 0.593333 13.3333 1.33333 13.3333H10.6667C11.4 13.3333 12 12.7333 12 12V2.66667C12 1.93333 11.4 1.33333 10.6667 1.33333ZM10.6667 12H1.33333V5.33333H10.6667V12ZM1.33333 4H10.6667V2.66667H1.33333V4Z" fill="#C2DBFF"/>
<rect x="1" y="2" width="10" height="3" fill="#C2DBFF"/>
</svg>
