<svg width="auto" height="auto" viewBox="0 0 9 8" fill="none" xmlns="http://www.w3.org/2000/svg">
<path fill-rule="evenodd" clip-rule="evenodd" d="M8.1 0H0.9C0.405 0 0.0045 0.405 0.0045 0.9L0 6.3C0 6.795 0.405 7.2 0.9 7.2H8.1C8.595 7.2 9 6.795 9 6.3V0.9C9 0.405 8.595 0 8.1 0ZM8.1 5.8C8.1 6.07614 7.87614 6.3 7.6 6.3H1.4C1.12386 6.3 0.9 6.07614 0.9 5.8V2.70212C0.9 2.30941 1.33198 2.06998 1.665 2.27812L4.235 3.88438C4.39714 3.98571 4.60286 3.98571 4.765 3.88438L7.335 2.27812C7.66802 2.06998 8.1 2.30941 8.1 2.70212V5.8ZM4.235 2.98438C4.39714 3.08571 4.60286 3.08571 4.765 2.98438L6.6216 1.824C7.04759 1.55776 6.85895 0.9 6.3566 0.9H2.6434C2.14105 0.9 1.95241 1.55776 2.3784 1.824L4.235 2.98438Z" fill="#242931"/>
</svg>
